<svg xmlns="http://www.w3.org/2000/svg" viewBox="624 472 676 127" aria-label="Tethrd.">
  <g fill="#000000">
    <polygon points="912.31 482.51 830.79 482.51 830.79 499.21 862.82 499.21 862.82 587.26 880.28 587.26 880.28 499.21 912.31 499.21 912.31 482.51"/>
    <path d="M941.62,574.05c-11.84,0-20.34-6.98-22.31-19.28h58.9c.3-1.82.3-3.79.3-5.62,0-22.31-15.64-38.71-37.65-38.71s-38.26,17.15-38.26,39.17,16.85,39.17,39.02,39.17c16.7,0,31.42-10.17,37.19-26.57h-17.31c-3.34,7.13-10.48,11.84-19.89,11.84ZM940.71,525.01c11.39,0,19.28,7.29,20.65,17.46h-41.6c2.43-10.93,10.48-17.46,20.95-17.46Z"/>
    <path d="M1082.52,510.44c-9.26,0-16.55,3.34-21.25,9.11v-37.04h-16.85v104.75h16.85v-41.29c0-11.99,7.44-19.58,18.67-19.58s17.61,7.29,17.61,19.58v41.29h16.85v-42.81c0-20.8-13.21-34.01-31.88-34.01Z"/>
    <path d="M1145.83,522.43v-10.47h-16.09v75.3h16.85v-39.32c0-11.69,5.62-19.13,19.28-19.13h7.13v-16.85h-5.16c-10.63,0-17.76,3.95-22.01,10.47Z"/>
    <path d="M1239.5,521.22c-5.62-6.83-14.27-10.78-24.44-10.78-21.56,0-37.95,17.15-37.95,39.17s16.4,39.17,37.95,39.17c10.63,0,19.74-4.25,25.2-11.54v10.02h16.09v-104.75h-16.85v38.71ZM1216.88,572.83c-13.21,0-22.92-9.72-22.92-23.23s9.72-23.38,22.92-23.38,22.77,9.87,22.77,23.38-9.57,23.23-22.77,23.23Z"/>
    <path d="M1012.98,489.32h-16.85v13.39c0,2.86,1.78,5.42,4.47,6.4l5.13,1.88c.52.19.38.96-.17.96h-21.88v15.48h12.45v36.74c0,15.64,8.2,23.07,25.35,23.07h11.54v-15.79h-10.32c-6.83,0-9.72-3.04-9.72-8.96v-35.07h20.04v-15.48h-20.04v-22.64Z"/>
    <path d="M794.67,482.51h-42.41c-5.58,0-10.95,2.15-14.99,6.01l-31.12,29.75-2.77,2.65h.02l-4.46,4.3c-3.63,3.5-5.69,8.33-5.69,13.38v58.9l33.17-31.97c2.83-2.73,4.43-6.5,4.43-10.43v-33.03c0-1.07.87-1.94,1.94-1.94h17.96c2.82,0,5.54-1.09,7.58-3.03l36.32-34.58Z"/>
    <path d="M703.38,482.51v34.94c0,1.48-1.2,2.68-2.68,2.68h-66.72l36.18-34.59c2.04-1.95,4.74-3.03,7.56-3.03h25.66Z"/>
    <path d="M1281.5,483.74c1.42.82,2.53,1.96,3.33,3.42.79,1.46,1.19,3.12,1.19,4.98s-.4,3.52-1.19,4.99c-.79,1.47-1.9,2.61-3.33,3.43-1.42.82-3.06,1.23-4.89,1.23s-3.48-.41-4.91-1.23c-1.43-.82-2.55-1.97-3.34-3.43-.79-1.47-1.19-3.13-1.19-4.99s.4-3.52,1.19-4.98c.79-1.46,1.91-2.6,3.34-3.42,1.43-.82,3.07-1.23,4.91-1.23s3.47.41,4.89,1.23ZM1272.76,485.54c-1.09.61-1.93,1.49-2.52,2.63s-.88,2.46-.88,3.97.29,2.82.88,3.95c.59,1.13,1.43,2.01,2.52,2.64s2.37.95,3.84.95,2.73-.32,3.82-.95,1.93-1.51,2.52-2.64c.59-1.13.89-2.45.89-3.95s-.3-2.83-.89-3.97-1.43-2.02-2.51-2.63-2.36-.92-3.83-.92-2.75.31-3.84.92ZM1273.84,487.25c-.81.46-1.44,1.11-1.9,1.95-.46.84-.69,1.81-.69,2.91s.23,2.07.7,2.92c.47.85,1.11,1.5,1.9,1.96.8.46,1.69.69,2.68.69,1.23,0,2.29-.33,3.18-.98.89-.65,1.49-1.52,1.79-2.58h-2.52c-.21.52-.51.91-.9,1.19-.39.28-.91.41-1.55.41-.86,0-1.55-.31-2.06-.93s-.78-1.52-.78-2.68.26-2.05.78-2.67c.52-.61,1.21-.92,2.06-.92.61,0,1.13.14,1.56.41.43.27.72.67.89,1.19h2.52c-.31-1.13-.9-2.01-1.77-2.63-.87-.62-1.94-.93-3.2-.93-.99,0-1.88.23-2.69.69Z"/>
  </g>
</svg>
